<mxfile host="www.draw.io" modified="2019-10-18T06:44:44.609Z" agent="Mozilla/5.0 (Windows NT 10.0; Win64; x64) AppleWebKit/537.36 (KHTML, like Gecko) Chrome/77.0.3865.120 Safari/537.36" etag="vTq9B0DEpMZQ4lh_SICX" version="12.1.3" type="github" pages="1">
  <diagram id="wsJFYgzvDe4PEAToPgbp" name="Page-1">
    <mxGraphModel dx="868" dy="482" grid="1" gridSize="10" guides="1" tooltips="1" connect="1" arrows="1" fold="1" page="0" pageScale="1" pageWidth="850" pageHeight="1100" math="0" shadow="0">
      <root>
        <mxCell id="0"/>
        <mxCell id="1" parent="0"/>
        <mxCell id="t_71At6rJspRJRcUBdHi-22" value="IPython Jupyter&lt;br&gt;&#39;Communications Machinery&#39;" style="rounded=1;whiteSpace=wrap;html=1;verticalAlign=top;dashed=1;arcSize=7;" parent="1" vertex="1">
          <mxGeometry x="300" y="40" width="360" height="120" as="geometry"/>
        </mxCell>
        <mxCell id="t_71At6rJspRJRcUBdHi-4" value="Terminal" style="rounded=1;whiteSpace=wrap;html=1;verticalAlign=top;dashed=1;arcSize=7;" parent="1" vertex="1">
          <mxGeometry x="120" y="40" width="160" height="120" as="geometry"/>
        </mxCell>
        <mxCell id="t_71At6rJspRJRcUBdHi-1" value="User" style="shape=umlActor;verticalLabelPosition=bottom;labelBackgroundColor=#ffffff;verticalAlign=top;html=1;outlineConnect=0;" parent="1" vertex="1">
          <mxGeometry x="10" y="150" width="30" height="60" as="geometry"/>
        </mxCell>
        <mxCell id="t_71At6rJspRJRcUBdHi-14" value="" style="edgeStyle=orthogonalEdgeStyle;rounded=0;orthogonalLoop=1;jettySize=auto;html=1;fontFamily=Lucida Console;" parent="1" source="t_71At6rJspRJRcUBdHi-3" target="t_71At6rJspRJRcUBdHi-6" edge="1">
          <mxGeometry relative="1" as="geometry">
            <mxPoint x="60" y="110" as="targetPoint"/>
          </mxGeometry>
        </mxCell>
        <mxCell id="t_71At6rJspRJRcUBdHi-3" value="jupyter notebook" style="rounded=0;whiteSpace=wrap;html=1;fontFamily=Lucida Console;" parent="1" vertex="1">
          <mxGeometry x="140" y="80" width="120" height="60" as="geometry"/>
        </mxCell>
        <mxCell id="t_71At6rJspRJRcUBdHi-6" value="IPython&lt;br&gt;Kernel" style="rounded=0;whiteSpace=wrap;html=1;" parent="1" vertex="1">
          <mxGeometry x="320" y="80" width="120" height="60" as="geometry"/>
        </mxCell>
        <mxCell id="t_71At6rJspRJRcUBdHi-15" value="JSON" style="edgeStyle=orthogonalEdgeStyle;rounded=0;orthogonalLoop=1;jettySize=auto;html=1;fontFamily=Lucida Console;exitX=1;exitY=0.5;exitDx=0;exitDy=0;startArrow=classic;startFill=1;endArrow=classic;endFill=1;" parent="1" source="t_71At6rJspRJRcUBdHi-6" target="t_71At6rJspRJRcUBdHi-9" edge="1">
          <mxGeometry relative="1" as="geometry">
            <mxPoint x="469.20000000000005" y="110" as="targetPoint"/>
          </mxGeometry>
        </mxCell>
        <mxCell id="t_71At6rJspRJRcUBdHi-19" value="JSON" style="edgeStyle=orthogonalEdgeStyle;rounded=0;orthogonalLoop=1;jettySize=auto;html=1;fontFamily=Lucida Console;startArrow=classic;startFill=1;endArrow=classic;endFill=1;" parent="1" source="t_71At6rJspRJRcUBdHi-9" target="t_71At6rJspRJRcUBdHi-27" edge="1">
          <mxGeometry relative="1" as="geometry">
            <mxPoint x="689.2" y="110" as="targetPoint"/>
          </mxGeometry>
        </mxCell>
        <mxCell id="t_71At6rJspRJRcUBdHi-9" value="ZeroMQ&lt;br&gt;Socket" style="rounded=0;whiteSpace=wrap;html=1;" parent="1" vertex="1">
          <mxGeometry x="520" y="80" width="120" height="60" as="geometry"/>
        </mxCell>
        <mxCell id="t_71At6rJspRJRcUBdHi-25" value="Browser" style="rounded=1;whiteSpace=wrap;html=1;verticalAlign=top;dashed=1;arcSize=7;" parent="1" vertex="1">
          <mxGeometry x="120" y="200" width="160" height="120" as="geometry"/>
        </mxCell>
        <mxCell id="t_71At6rJspRJRcUBdHi-26" value="Jupyter&lt;br&gt;Notebook UI" style="rounded=0;whiteSpace=wrap;html=1;" parent="1" vertex="1">
          <mxGeometry x="140" y="240" width="120" height="60" as="geometry"/>
        </mxCell>
        <mxCell id="t_71At6rJspRJRcUBdHi-35" value="HTTP / WebSockets" style="edgeStyle=orthogonalEdgeStyle;rounded=0;orthogonalLoop=1;jettySize=auto;html=1;fontFamily=Lucida Console;entryX=1;entryY=0.5;entryDx=0;entryDy=0;exitX=0.5;exitY=1;exitDx=0;exitDy=0;startArrow=classic;startFill=1;endArrow=classic;endFill=1;" parent="1" source="t_71At6rJspRJRcUBdHi-27" target="t_71At6rJspRJRcUBdHi-26" edge="1">
          <mxGeometry relative="1" as="geometry">
            <mxPoint x="780" as="targetPoint"/>
          </mxGeometry>
        </mxCell>
        <mxCell id="t_71At6rJspRJRcUBdHi-27" value="Notebook Server" style="rounded=0;whiteSpace=wrap;html=1;" parent="1" vertex="1">
          <mxGeometry x="700" y="80" width="120" height="60" as="geometry"/>
        </mxCell>
        <mxCell id="t_71At6rJspRJRcUBdHi-30" value="File System" style="rounded=1;whiteSpace=wrap;html=1;verticalAlign=top;dashed=1;arcSize=7;" parent="1" vertex="1">
          <mxGeometry x="860" y="38" width="120" height="120" as="geometry"/>
        </mxCell>
        <mxCell id="t_71At6rJspRJRcUBdHi-31" value=".ipynb" style="shape=document;whiteSpace=wrap;html=1;boundedLbl=1;rounded=1;strokeWidth=1;fontFamily=Lucida Console;" parent="1" vertex="1">
          <mxGeometry x="880" y="80" width="80" height="60" as="geometry"/>
        </mxCell>
        <mxCell id="t_71At6rJspRJRcUBdHi-33" value="JSON" style="edgeStyle=orthogonalEdgeStyle;rounded=0;orthogonalLoop=1;jettySize=auto;html=1;fontFamily=Lucida Console;startArrow=classic;startFill=1;endArrow=classic;endFill=1;" parent="1" source="t_71At6rJspRJRcUBdHi-27" target="t_71At6rJspRJRcUBdHi-31" edge="1">
          <mxGeometry relative="1" as="geometry">
            <mxPoint x="470" y="260" as="targetPoint"/>
          </mxGeometry>
        </mxCell>
        <mxCell id="t_71At6rJspRJRcUBdHi-37" value="" style="shape=link;html=1;startArrow=classic;startFill=1;endArrow=classic;endFill=1;fontFamily=Lucida Console;" parent="1" edge="1">
          <mxGeometry width="50" height="50" relative="1" as="geometry">
            <mxPoint x="780" y="290" as="sourcePoint"/>
            <mxPoint x="740" y="250" as="targetPoint"/>
          </mxGeometry>
        </mxCell>
        <mxCell id="t_71At6rJspRJRcUBdHi-41" value="" style="edgeStyle=orthogonalEdgeStyle;rounded=0;orthogonalLoop=1;jettySize=auto;html=1;fontFamily=Lucida Console;startArrow=none;startFill=0;endArrow=classic;endFill=1;entryX=0;entryY=0.5;entryDx=0;entryDy=0;curved=1;" parent="1" source="t_71At6rJspRJRcUBdHi-1" target="t_71At6rJspRJRcUBdHi-3" edge="1">
          <mxGeometry relative="1" as="geometry">
            <mxPoint x="50" y="80" as="sourcePoint"/>
            <mxPoint x="60" y="150" as="targetPoint"/>
          </mxGeometry>
        </mxCell>
        <mxCell id="t_71At6rJspRJRcUBdHi-42" value="" style="edgeStyle=orthogonalEdgeStyle;rounded=0;orthogonalLoop=1;jettySize=auto;html=1;fontFamily=Lucida Console;startArrow=none;startFill=0;endArrow=classic;endFill=1;entryX=0;entryY=0.5;entryDx=0;entryDy=0;curved=1;" parent="1" source="t_71At6rJspRJRcUBdHi-1" target="t_71At6rJspRJRcUBdHi-26" edge="1">
          <mxGeometry relative="1" as="geometry">
            <mxPoint x="90" y="170" as="sourcePoint"/>
            <mxPoint x="60" y="210" as="targetPoint"/>
          </mxGeometry>
        </mxCell>
        <mxCell id="XyWFxJSOMiYLMVShWN8k-1" value="CHANGED" style="rounded=1;whiteSpace=wrap;html=1;fillColor=#d5e8d4;strokeColor=#82b366;" vertex="1" parent="1">
          <mxGeometry x="20" y="340" width="120" height="60" as="geometry"/>
        </mxCell>
      </root>
    </mxGraphModel>
  </diagram>
</mxfile>
